<svg width="64" height="64" viewBox="0 0 64 64" fill="none" xmlns="http://www.w3.org/2000/svg">
<path d="M50.6667 29.3333H50.2133C47.4053 29.3333 44.992 27.5493 43.928 24.9493L43.872 24.8186C42.784 22.2133 43.208 19.2266 45.2053 17.2293L45.5227 16.912C45.7703 16.6644 45.9667 16.3705 46.1006 16.047C46.2346 15.7235 46.3036 15.3768 46.3036 15.0266C46.3036 14.6765 46.2346 14.3298 46.1006 14.0063C45.9667 13.6828 45.7703 13.3889 45.5227 13.1413C45.2751 12.8937 44.9812 12.6973 44.6577 12.5633C44.3342 12.4293 43.9875 12.3604 43.6373 12.3604C43.2872 12.3604 42.9405 12.4293 42.617 12.5633C42.2935 12.6973 41.9996 12.8937 41.752 13.1413L41.4347 13.4586C39.4373 15.456 36.4507 15.88 33.8453 14.792L33.7147 14.736C31.1173 13.6746 29.3333 11.248 29.3333 8.43998V8.22398C29.3333 6.52531 28.1413 5.33331 26.6667 5.33331C25.192 5.33331 24 6.52531 24 7.99998V8.09598C24 11.0186 22.24 13.6533 19.5387 14.7706L19.5227 14.7786C18.2021 15.3252 16.7492 15.468 15.3475 15.1889C13.9459 14.9098 12.6584 14.2214 11.648 13.2106L11.5813 13.144C11.3337 12.8964 11.0398 12.7 10.7163 12.566C10.3928 12.432 10.0461 12.363 9.696 12.363C9.34586 12.363 8.99915 12.432 8.67567 12.566C8.35218 12.7 8.05825 12.8964 7.81067 13.144C7.56308 13.3916 7.36669 13.6855 7.23269 14.009C7.0987 14.3325 7.02974 14.6792 7.02974 15.0293C7.02974 15.3795 7.0987 15.7262 7.23269 16.0496C7.36669 16.3731 7.56308 16.6671 7.81067 16.9146L7.90667 17.0106C8.90847 18.0133 9.59078 19.2903 9.86747 20.6804C10.1442 22.0705 10.0028 23.5115 9.46133 24.8213L9.38933 24.992C8.85691 26.2767 7.95566 27.3747 6.79946 28.1474C5.64325 28.9201 4.28397 29.3328 2.89333 29.3333H2.89067C1.192 29.3333 0 30.5253 0 32C0 33.4746 1.192 34.6666 2.66667 34.6666H2.848C4.25219 34.6663 5.62489 35.0827 6.79223 35.8631C7.95956 36.6436 8.869 37.7529 9.40533 39.0506L9.46133 39.1813C10.0028 40.4912 10.1442 41.9321 9.86747 43.3222C9.59078 44.7123 8.90847 45.9893 7.90667 46.992L7.81067 47.088C7.31065 47.588 7.02974 48.2662 7.02974 48.9733C7.02974 49.6805 7.31065 50.3586 7.81067 50.8587C8.31069 51.3587 8.98886 51.6396 9.696 51.6396C10.4031 51.6396 11.0813 51.3587 11.5813 50.8587L11.6773 50.7626C12.6798 49.7605 13.9568 49.078 15.347 48.8013C16.7372 48.5246 18.1782 48.6661 19.488 49.208L19.8693 49.368C21.0924 49.873 22.1379 50.7298 22.8733 51.8298C23.6087 52.9298 24.0008 54.2235 24 55.5466V55.7733C24 57.4747 25.192 58.6666 26.6667 58.6666C28.1413 58.6666 29.3333 57.472 29.3333 56V55.5466C29.3333 52.84 30.9627 50.4 33.4667 49.3653L34.1387 49.088C35.362 48.5806 36.7085 48.4479 38.0074 48.7066C39.3063 48.9653 40.4991 49.6039 41.4347 50.5413L41.752 50.8587C41.9996 51.1062 42.2935 51.3026 42.617 51.4366C42.9405 51.5706 43.2872 51.6396 43.6373 51.6396C43.9875 51.6396 44.3342 51.5706 44.6577 51.4366C44.9812 51.3026 45.2751 51.1062 45.5227 50.8587C45.7703 50.6111 45.9667 50.3171 46.1006 49.9936C46.2346 49.6702 46.3036 49.3235 46.3036 48.9733C46.3036 48.6232 46.2346 48.2765 46.1006 47.953C45.9667 47.6295 45.7703 47.3356 45.5227 47.088L45.2053 46.7706C43.208 44.7733 42.784 41.7866 43.872 39.1813L43.928 39.0506C44.992 36.4506 47.4187 34.6666 50.2267 34.6666H50.44C52.1413 34.6666 53.3333 33.4746 53.3333 32C53.3333 30.5253 52.1413 29.3333 50.6667 29.3333ZM16 34.6666C15.2928 34.6666 14.6145 34.3857 14.1144 33.8856C13.6143 33.3855 13.3333 32.7072 13.3333 32C13.3333 31.2927 13.6143 30.6145 14.1144 30.1144C14.6145 29.6143 15.2928 29.3333 16 29.3333C16.7072 29.3333 17.3855 29.6143 17.8856 30.1144C18.3857 30.6145 18.6667 31.2927 18.6667 32C18.6667 32.7072 18.3857 33.3855 17.8856 33.8856C17.3855 34.3857 16.7072 34.6666 16 34.6666ZM29.3333 44C28.6261 44 27.9478 43.719 27.4477 43.2189C26.9476 42.7188 26.6667 42.0406 26.6667 41.3333C26.6667 40.6261 26.9476 39.9478 27.4477 39.4477C27.9478 38.9476 28.6261 38.6666 29.3333 38.6666C30.0406 38.6666 30.7189 38.9476 31.219 39.4477C31.719 39.9478 32 40.6261 32 41.3333C32 42.0406 31.719 42.7188 31.219 43.2189C30.7189 43.719 30.0406 44 29.3333 44ZM32 32C31.2994 31.9998 30.6058 31.8616 29.9586 31.5934C29.3114 31.3251 28.7235 30.932 28.2282 30.4366C27.733 29.9411 27.3402 29.3529 27.0722 28.7056C26.8043 28.0583 26.6665 27.3645 26.6667 26.664C26.6668 25.9634 26.805 25.2698 27.0733 24.6226C27.3415 23.9754 27.7346 23.3874 28.2301 22.8922C28.7256 22.3969 29.3138 22.0041 29.9611 21.7362C30.6084 21.4683 31.3021 21.3305 32.0027 21.3306C33.4175 21.331 34.7743 21.8934 35.7745 22.8941C36.7747 23.8948 37.3364 25.2518 37.336 26.6666C37.3356 28.0815 36.7733 29.4382 35.7726 30.4384C34.7719 31.4386 33.4148 32.0003 32 32Z" fill="#0C4534"/>
</svg>
